<svg width="211" height="48" viewBox="0 0 211 48" fill="none" xmlns="http://www.w3.org/2000/svg">
  <path d="M47.1588 23.5807C47.1588 36.0505 37.0505 46.1588 24.5807 46.1588C12.1109 46.1588 2 36.0505 2 23.5807C2 21.2746 2.34565 19.0477 2.98946 16.9501C3.54355 15.1453 4.31665 13.4381 5.27709 11.8577C9.23755 5.34834 16.4012 1 24.5807 1C32.7602 1 39.9213 5.34834 43.8817 11.8577C45.9609 15.2746 47.1588 19.2878 47.1588 23.5807Z" fill="#26467D"/>
  <path d="M20.9 29.0318L16.8235 38.9026H15.1665L2.99219 16.9498C3.54628 15.1451 4.31938 13.4379 5.27982 11.8574H11.3801L20.9 29.0318Z" fill="white"/>
  <path d="M36.8728 28.8367L32.7224 38.9028H31.2501L22.9808 23.987L16.2578 11.855H27.4637L27.7619 12.4012L36.8728 28.8367Z" fill="white"/>
  <path d="M43.8847 11.855L43.6156 12.512L39.0404 23.5807L32.5469 11.855H43.8847Z" fill="white"/>
  <path d="M55.8151 32.9977V17.9791H52.2188V16.7495H55.8151V13.1531L57.2716 12.0608V16.7495H64.8258V17.9791H57.2716V32.8156C57.2716 36.3645 59.364 37.5044 61.641 37.5044C63.5513 37.5044 65.554 36.412 66.4194 34.6837L67.1028 36.0479C66.1028 37.7313 63.8706 38.8685 61.459 38.8685C58.5012 38.8685 55.8151 37.2299 55.8151 32.9977Z" fill="#FFFFFF"/>
  <path d="M68.1484 38.412V7.91821H69.6498V23.2113C70.2857 19.4329 73.1986 16.293 77.8425 16.293C81.9375 16.293 84.9428 18.8418 84.9428 24.4408V38.412H83.4863V24.6229C83.4863 20.0265 81.2119 17.5674 77.5232 17.5674C72.1538 17.5674 69.6498 21.5279 69.6498 25.578V38.412H68.1484Z" fill="#FFFFFF"/>
  <path d="M87.1719 27.581C87.1719 20.346 90.9951 16.2932 96.7762 16.2932C102.238 16.2932 105.834 20.1613 105.834 26.9899C105.834 27.3092 105.789 27.7182 105.745 27.9899H88.631C88.7207 34.7261 92.317 37.5942 97.2775 37.5942C101.647 37.5942 103.832 35.1826 104.924 32.6338L105.79 33.8633C104.333 36.6391 101.694 38.8687 97.2775 38.8687C91.3144 38.8687 87.1745 35.1826 87.1745 27.581M88.6283 26.8078H104.468C104.33 20.4806 101.235 17.5676 96.7762 17.5676C92.0875 17.5676 88.8579 20.6627 88.6283 26.8078Z" fill="#FFFFFF"/>
  <path d="M110.81 38.4121L105.234 17.0688H109.377L112.147 29.4938L113.103 35.515L114.345 29.7154L117.691 17.0688H122.343L125.622 29.7154L126.834 35.515L127.823 29.4938L130.657 17.0688H134.736L129.095 38.4121H124.572L121.227 25.7655L119.984 19.8077L118.744 25.7655L115.335 38.4121H110.81Z" fill="#FFFFFF"/>
  <path d="M135.508 38.4121V17.0688H145.128C149.46 17.0688 152.711 19.2984 152.711 23.6942C152.711 27.2616 150.257 29.3645 146.914 29.7471C148.189 30.1297 149.049 30.9265 149.814 32.2643L153.445 38.4121H149.302L145.606 32.0717C144.809 30.6389 143.727 30.1297 141.719 30.1297H139.107V38.4121H135.508ZM139.107 20.2536V27.1983H144.777C147.038 27.1983 148.983 26.3697 148.983 23.7892C148.983 21.0821 147.038 20.2536 144.777 20.2536H139.107Z" fill="#FFFFFF"/>
  <path d="M153.375 38.4121V17.0688H156.974V23.5359L156.847 27.7075L159.937 24.2035L166.689 17.0688H171.056L163.122 25.5412L171.502 38.4121H167.201L160.541 28.1561L156.974 31.9133V38.4121H153.375Z" fill="#FFFFFF"/>
  <path d="M169.625 27.9212C169.625 21.2879 173.699 16.9976 179.467 16.9976C185.235 16.9976 189.003 20.9422 189.003 27.0979C189.003 27.7497 188.915 28.3987 188.828 28.7893H173.266C173.483 33.2115 175.955 35.726 179.683 35.726C183.889 35.726 185.578 33.4278 186.401 31.6072L188.699 34.2088C187.137 36.7234 184.235 38.8474 179.683 38.8474C173.744 38.8474 169.625 34.5994 169.625 27.9238M173.351 26.0584H185.617C185.227 22.2008 182.973 20.1638 179.462 20.1638C175.95 20.1638 173.826 22.1586 173.348 26.0584" fill="#FFFFFF"/>
  <path d="M190.062 38.4121V17.0688H199.683C204.015 17.0688 207.266 19.2984 207.266 23.6942C207.266 27.2616 204.812 29.3645 201.469 29.7471C202.743 30.1297 203.604 30.9265 204.369 32.2643L207.999 38.4121H203.857L200.16 32.0717C199.363 30.6389 198.282 30.1297 196.274 30.1297H193.661V38.4121H190.062ZM193.661 20.2536V27.1983H199.332C201.593 27.1983 203.538 26.3697 203.538 23.7892C203.538 21.0821 201.596 20.2536 199.332 20.2536H193.661Z" fill="#FFFFFF"/>
</svg>
