<svg width="32" height="32" viewBox="0 0 32 32" fill="none" xmlns="http://www.w3.org/2000/svg">
<g clip-path="url(#clip0_1981_4979)">
<path d="M31.5 15.7509C31.5 24.4491 24.4491 31.5 15.7509 31.5C7.05276 31.5 0 24.4491 0 15.7509C0 14.1423 0.241104 12.589 0.690184 11.1258C1.07669 9.86687 1.61595 8.67608 2.28589 7.57362C5.04847 3.03313 10.0454 0 15.7509 0C21.4564 0 26.4515 3.03313 29.2141 7.57362C30.6644 9.95706 31.5 12.7564 31.5 15.7509Z" fill="#26467D"/>
<path d="M13.1711 19.5532L10.3275 26.4385H9.17171L0.679688 11.1256C1.06619 9.86674 1.60546 8.67594 2.2754 7.57349H6.53061L13.1711 19.5532Z" fill="white"/>
<path d="M24.3094 19.4172L21.4144 26.4386H20.3874L14.6193 16.0343L9.92969 7.57178H17.7463L17.9542 7.95276L24.3094 19.4172Z" fill="white"/>
<path d="M29.2133 7.57178L29.0255 8.03006L25.8341 15.7509L21.3047 7.57178H29.2133Z" fill="white"/>
</g>
<defs>
<clipPath id="clip0_1981_4979">
<rect width="32" height="32" fill="white"/>
</clipPath>
</defs>
</svg>
