<svg width="180" height="180" viewBox="0 0 48 48" fill="none" xmlns="http://www.w3.org/2000/svg">
  <path d="M47.1588 23.5807C47.1588 36.0505 37.0505 46.1588 24.5807 46.1588C12.1109 46.1588 2 36.0505 2 23.5807C2 21.2746 2.34565 19.0477 2.98946 16.9501C3.54355 15.1453 4.31665 13.4381 5.27709 11.8577C9.23755 5.34834 16.4012 1 24.5807 1C32.7602 1 39.9213 5.34834 43.8817 11.8577C45.9609 15.2746 47.1588 19.2878 47.1588 23.5807Z" fill="#26467D"/>
  <path d="M20.9 29.0318L16.8235 38.9026H15.1665L2.99219 16.9498C3.54628 15.1451 4.31938 13.4379 5.27982 11.8574H11.3801L20.9 29.0318Z" fill="white"/>
  <path d="M36.8728 28.8367L32.7224 38.9028H31.2501L22.9808 23.987L16.2578 11.855H27.4637L27.7619 12.4012L36.8728 28.8367Z" fill="white"/>
  <path d="M43.8847 11.855L43.6156 12.512L39.0404 23.5807L32.5469 11.855H43.8847Z" fill="white"/>
</svg>
